<svg width="141" height="112" viewBox="0 0 141 112" fill="none" xmlns="http://www.w3.org/2000/svg">
<rect opacity="0.7" width="141" height="112" fill="#DFBB33"/>
<path d="M35.04 41.24C34.5333 41.24 34.28 40.72 34.28 39.68C34.28 39.1733 34.5067 38.3733 34.96 37.28C35.4133 36.16 36.0133 34.8667 36.76 33.4C37.5333 31.9067 38.4 30.36 39.36 28.76C40.32 27.1333 41.3067 25.5467 42.32 24C43.3333 22.4533 44.3067 21.0533 45.24 19.8C46.1733 18.52 47.0133 17.5067 47.76 16.76C48.5067 16.0133 49.08 15.64 49.48 15.64C49.6667 15.64 49.92 15.7333 50.24 15.92C50.56 16.1067 50.8533 16.32 51.12 16.56C51.3867 16.8 51.52 17.0133 51.52 17.2C51.52 17.68 51.4533 18.2 51.32 18.76C51.2133 19.2933 51.12 19.8 51.04 20.28C50.9867 20.5467 50.88 21.1467 50.72 22.08C50.56 22.9867 50.4 24.04 50.24 25.24C50.1067 26.4133 50.04 27.5333 50.04 28.6C50.04 29.6133 50.1467 30.48 50.36 31.2C50.5733 31.92 50.96 32.28 51.52 32.28C52.24 32.28 53.12 31.9467 54.16 31.28C55.2 30.6133 56.3067 29.76 57.48 28.72C58.68 27.6533 59.8667 26.5333 61.04 25.36C62.24 24.16 63.3333 23.04 64.32 22C65.3333 20.9333 66.1733 20.0667 66.84 19.4C67.5333 18.7333 67.9467 18.4 68.08 18.4C68.16 18.4 68.2 18.4533 68.2 18.56C68.2 18.7733 68.1067 19.04 67.92 19.36C67.6 19.9733 67.0933 20.7467 66.4 21.68C65.7333 22.5867 64.9467 23.5733 64.04 24.64C63.1333 25.7067 62.16 26.76 61.12 27.8C60.1067 28.84 59.08 29.7867 58.04 30.64C57 31.4933 56 32.1867 55.04 32.72C54.08 33.2267 53.2133 33.48 52.44 33.48C51.2133 33.48 50.28 33.1467 49.64 32.48C49 31.7867 48.56 30.9067 48.32 29.84C48.08 28.7467 47.96 27.6133 47.96 26.44C47.96 25.08 48.0267 23.9067 48.16 22.92C48.2933 21.9067 48.4533 20.76 48.64 19.48C47.44 20.7333 46.1467 22.2133 44.76 23.92C43.4 25.6 42.08 27.4 40.8 29.32C39.5467 31.24 38.4533 33.1733 37.52 35.12C36.5867 37.04 35.96 38.8667 35.64 40.6C35.6133 40.76 35.56 40.9067 35.48 41.04C35.4 41.1733 35.2533 41.24 35.04 41.24ZM63.52 39.96C62.9333 39.96 62.5467 39.68 62.36 39.12C62.2 38.56 62.12 38.0533 62.12 37.6C62.12 37.0933 62.24 36.3333 62.48 35.32C62.7467 34.28 63.0933 33.0933 63.52 31.76C63.9467 30.4267 64.4267 29.04 64.96 27.6C65.52 26.1333 66.1067 24.7067 66.72 23.32C67.36 21.9333 67.9867 20.6933 68.6 19.6C69.2133 18.48 69.8 17.5867 70.36 16.92C70.92 16.2533 71.4133 15.92 71.84 15.92C72.0533 15.92 72.3867 16.0267 72.84 16.24C73.2933 16.4533 73.52 16.7067 73.52 17C73.52 17.08 73.28 17.4933 72.8 18.24C72.32 18.96 71.6933 19.9067 70.92 21.08C70.1733 22.2533 69.3733 23.56 68.52 25C67.6667 26.4133 66.8533 27.88 66.08 29.4C65.3333 30.92 64.72 32.3867 64.24 33.8C63.76 35.1867 63.52 36.4267 63.52 37.52V37.84C63.52 38.0267 63.5467 38.2133 63.6 38.4C63.6533 38.56 63.7733 38.64 63.96 38.64C64.28 38.64 64.44 38.8 64.44 39.12C64.44 39.3067 64.36 39.4933 64.2 39.68C64.04 39.8667 63.8133 39.96 63.52 39.96ZM69.7325 39.64C68.1325 39.64 67.3325 38.8533 67.3325 37.28C67.3325 36.6667 67.4925 35.96 67.8125 35.16C68.1592 34.3333 68.6125 33.5067 69.1725 32.68C69.7325 31.8533 70.3592 31.0933 71.0525 30.4C71.7458 29.68 72.4525 29.1067 73.1725 28.68C73.9192 28.2267 74.6125 28 75.2525 28C75.4658 28 75.6125 28.0533 75.6925 28.16C75.7992 28.24 75.8792 28.3867 75.9325 28.6C75.9858 28.7067 76.0258 28.8267 76.0525 28.96C76.0792 29.0933 76.1192 29.2267 76.1725 29.36C76.2792 29.5467 76.3725 29.7333 76.4525 29.92C76.5325 30.1067 76.5725 30.3067 76.5725 30.52C76.5725 30.7867 76.5058 31.0267 76.3725 31.24C76.2392 31.4267 76.0792 31.6 75.8925 31.76C75.6258 32 75.2258 32.3067 74.6925 32.68C74.1592 33.0267 73.5725 33.3867 72.9325 33.76C72.3192 34.1067 71.7192 34.4133 71.1325 34.68C70.5725 34.9467 70.1192 35.1067 69.7725 35.16C69.5325 35.5333 69.2792 36 69.0125 36.56C68.7725 37.0933 68.6525 37.5867 68.6525 38.04C68.6525 38.28 68.7058 38.4933 68.8125 38.68C68.9458 38.8667 69.1458 38.96 69.4125 38.96C69.8392 38.96 70.3992 38.76 71.0925 38.36C71.8125 37.9333 72.5592 37.4267 73.3325 36.84C74.1058 36.2267 74.8125 35.64 75.4525 35.08C76.1192 34.4933 76.6125 34.04 76.9325 33.72L78.2125 32.36C78.3725 32.2 78.5458 32.12 78.7325 32.12C78.8925 32.12 78.9725 32.1867 78.9725 32.32C78.9725 32.48 78.7458 32.8133 78.2925 33.32C77.8392 33.8 77.2925 34.3467 76.6525 34.96C76.0392 35.5467 75.4658 36.0933 74.9325 36.6C74.3992 37.08 74.0525 37.3867 73.8925 37.52C73.3325 38 72.6925 38.48 71.9725 38.96C71.2525 39.4133 70.5058 39.64 69.7325 39.64ZM70.4525 34.12C70.7192 33.96 71.1192 33.7067 71.6525 33.36C72.2125 33.0133 72.7858 32.6267 73.3725 32.2C73.9592 31.7733 74.4525 31.3467 74.8525 30.92C75.2792 30.4933 75.4925 30.12 75.4925 29.8C75.4925 29.72 75.4792 29.6533 75.4525 29.6C75.4258 29.5733 75.3725 29.56 75.2925 29.56C74.9458 29.56 74.5325 29.7467 74.0525 30.12C73.5725 30.4933 73.0925 30.9467 72.6125 31.48C72.1325 31.9867 71.6925 32.4933 71.2925 33C70.9192 33.48 70.6392 33.8533 70.4525 34.12ZM68.4834 55.32C67.2568 55.32 66.6434 54.7067 66.6434 53.48C66.6434 53.3467 66.6568 53.2133 66.6834 53.08C66.6834 52.9467 66.6968 52.8133 66.7234 52.68C66.9368 51.72 67.3901 50.8 68.0834 49.92C68.7768 49.04 69.5901 48.2133 70.5234 47.44C71.4568 46.6933 72.4168 45.9867 73.4034 45.32C74.3634 44.68 75.2301 44.12 76.0034 43.64C76.4568 43.3467 77.0301 42.9867 77.7234 42.56C78.4434 42.1333 79.2034 41.6667 80.0034 41.16C80.8034 40.68 81.5634 40.2267 82.2834 39.8C82.5768 39.0533 82.8301 38.2267 83.0434 37.32C83.2834 36.4133 83.3901 35.5067 83.3634 34.6C83.0434 34.9467 82.6168 35.4267 82.0834 36.04C81.5501 36.6267 80.9634 37.2133 80.3234 37.8C79.7101 38.3867 79.0834 38.8933 78.4434 39.32C77.8301 39.72 77.2834 39.92 76.8034 39.92C76.2968 39.92 75.9101 39.68 75.6434 39.2C75.3768 38.72 75.2434 38.2533 75.2434 37.8C75.2434 37.0533 75.4568 36.24 75.8834 35.36C76.3101 34.48 76.8834 33.6133 77.6034 32.76C78.3234 31.9067 79.1101 31.12 79.9634 30.4C80.8168 29.68 81.6701 29.1067 82.5234 28.68C83.3768 28.2533 84.1634 28.04 84.8834 28.04C85.4434 28.04 85.9501 28.24 86.4034 28.64C86.8568 29.0133 87.0834 29.4933 87.0834 30.08C87.0834 30.2667 87.0301 30.4667 86.9234 30.68C86.8434 30.8667 86.6968 30.96 86.4834 30.96C86.2968 30.96 86.1501 30.8933 86.0434 30.76C85.9368 30.6 85.8034 30.4533 85.6434 30.32C85.4834 30.16 85.2034 30.08 84.8034 30.08C84.2168 30.08 83.5768 30.28 82.8834 30.68C82.2168 31.0533 81.5901 31.5067 81.0034 32.04C80.4168 32.5733 79.9234 33.04 79.5234 33.44C79.0168 33.9733 78.5234 34.6133 78.0434 35.36C77.5901 36.1067 77.2301 36.8267 76.9634 37.52C76.8834 37.7067 76.8034 37.92 76.7234 38.16C76.6701 38.4 76.6434 38.6267 76.6434 38.84C76.6434 39.1067 76.7368 39.24 76.9234 39.24C76.9768 39.24 77.0301 39.24 77.0834 39.24C77.1368 39.2133 77.1901 39.1867 77.2434 39.16C78.0168 38.84 78.8301 38.2667 79.6834 37.44C80.5368 36.6133 81.3368 35.72 82.0834 34.76C82.8301 33.7733 83.4301 32.9333 83.8834 32.24L84.0434 32C84.2034 31.4933 84.5501 31.24 85.0834 31.24C85.2434 31.24 85.4034 31.28 85.5634 31.36C85.7234 31.44 85.8034 31.5867 85.8034 31.8C85.8034 32.9733 85.7501 34 85.6434 34.88C85.5368 35.76 85.2834 36.76 84.8834 37.88C85.4168 37.4533 85.9101 37.04 86.3634 36.64C86.8434 36.24 87.3101 35.8 87.7634 35.32C88.1901 34.8933 88.5901 34.4533 88.9634 34C89.3634 33.5467 89.7768 33.12 90.2034 32.72C90.2568 32.6667 90.3101 32.6267 90.3634 32.6C90.4434 32.5467 90.5234 32.52 90.6034 32.52C90.7634 32.52 90.8434 32.6 90.8434 32.76C90.8434 32.8933 90.6434 33.1867 90.2434 33.64C89.8701 34.0667 89.3901 34.5733 88.8034 35.16C88.2434 35.7467 87.6434 36.3467 87.0034 36.96C86.3901 37.5467 85.8301 38.08 85.3234 38.56C84.8434 39.0133 84.5101 39.32 84.3234 39.48C83.0968 42.7067 81.4968 45.5067 79.5234 47.88C77.5768 50.28 75.0968 52.3467 72.0834 54.08C71.5768 54.3733 71.0034 54.6533 70.3634 54.92C69.7234 55.1867 69.0968 55.32 68.4834 55.32ZM69.4034 54.32C70.1234 54.32 70.9101 54.0533 71.7634 53.52C72.5901 53.0133 73.4168 52.3733 74.2434 51.6C75.0701 50.8267 75.8168 50.0533 76.4834 49.28C77.1768 48.5333 77.7234 47.9067 78.1234 47.4C78.5768 46.7867 79.0168 46.1733 79.4434 45.56C79.8701 44.9733 80.2701 44.36 80.6434 43.72C81.2034 42.7867 81.6701 41.88 82.0434 41C82.0701 40.92 82.0434 40.8667 81.9634 40.84C81.9101 40.84 81.8834 40.84 81.8834 40.84C81.0568 41.4267 80.2168 42 79.3634 42.56C78.5368 43.1467 77.6968 43.72 76.8434 44.28C76.4168 44.5467 75.8434 44.9333 75.1234 45.44C74.4034 45.9733 73.6301 46.56 72.8034 47.2C71.9768 47.8667 71.1901 48.5467 70.4434 49.24C69.6968 49.96 69.0834 50.6533 68.6034 51.32C68.1234 52.0133 67.8834 52.6267 67.8834 53.16C67.8834 53.5867 68.0568 53.88 68.4034 54.04C68.7234 54.2267 69.0568 54.32 69.4034 54.32ZM95.9891 40.36C95.7491 40.36 95.4691 40.2533 95.1491 40.04C94.8557 39.8267 94.6024 39.5867 94.3891 39.32C94.1757 39.0267 94.0691 38.76 94.0691 38.52C94.0691 38.12 94.2157 37.5867 94.5091 36.92C94.8024 36.2267 95.1357 35.5467 95.5091 34.88C95.9091 34.2133 96.2157 33.72 96.4291 33.4C96.0557 33.72 95.5757 34.24 94.9891 34.96C94.4291 35.6533 93.8157 36.4 93.1491 37.2C92.5091 37.9733 91.8824 38.64 91.2691 39.2C90.6824 39.76 90.1757 40.04 89.7491 40.04C89.1624 40.04 88.6824 39.84 88.3091 39.44C87.9624 39.0133 87.7891 38.5067 87.7891 37.92C87.7891 37.12 88.0157 36.2667 88.4691 35.36C88.9224 34.4267 89.5091 33.5333 90.2291 32.68C90.9757 31.8 91.7757 31 92.6291 30.28C93.5091 29.56 94.3624 28.9867 95.1891 28.56C96.0424 28.1333 96.8024 27.92 97.4691 27.92C98.1891 27.92 98.7757 28.0933 99.2291 28.44C99.6824 28.76 99.9091 29.2533 99.9091 29.92C99.9091 30.0267 99.8824 30.2267 99.8291 30.52C99.8024 30.8133 99.7091 30.96 99.5491 30.96C99.4691 30.96 99.3357 30.84 99.1491 30.6C98.9891 30.36 98.7624 30.12 98.4691 29.88C98.1757 29.64 97.8024 29.52 97.3491 29.52C96.6024 29.52 95.8157 29.8 94.9891 30.36C94.1891 30.8933 93.4157 31.5867 92.6691 32.44C91.9224 33.2667 91.2691 34.12 90.7091 35C90.1491 35.88 89.7224 36.64 89.4291 37.28C89.3491 37.4667 89.2691 37.6667 89.1891 37.88C89.1357 38.0933 89.1091 38.3067 89.1091 38.52C89.1091 38.76 89.1757 38.88 89.3091 38.88C89.4424 38.88 89.7224 38.7333 90.1491 38.44C90.6024 38.1467 90.9224 37.9333 91.1091 37.8C92.0424 37.1333 92.9224 36.3733 93.7491 35.52C94.6024 34.6667 95.3624 33.7867 96.0291 32.88C96.2424 32.5867 96.4424 32.2933 96.6291 32C96.8157 31.7067 97.0024 31.4267 97.1891 31.16C97.3224 30.9733 97.4557 30.88 97.5891 30.88C97.8824 30.88 98.1624 31.08 98.4291 31.48C98.7224 31.88 98.8691 32.2267 98.8691 32.52C98.8691 32.6533 98.8424 32.7333 98.7891 32.76C98.7624 32.7867 98.6824 32.8667 98.5491 33C98.1491 33.4 97.7491 33.96 97.3491 34.68C96.9757 35.4 96.6424 36.1333 96.3491 36.88C96.0824 37.6 95.8824 38.2133 95.7491 38.72C95.7224 38.8 95.6957 38.9067 95.6691 39.04C95.6691 39.1467 95.7357 39.1867 95.8691 39.16C96.1357 39.08 96.5624 38.7867 97.1491 38.28C97.7624 37.7467 98.4157 37.1467 99.1091 36.48C99.8291 35.7867 100.469 35.1467 101.029 34.56C101.616 33.9733 102.002 33.56 102.189 33.32C102.242 33.2667 102.296 33.2133 102.349 33.16C102.429 33.08 102.509 33.04 102.589 33.04C102.776 33.04 102.869 33.1333 102.869 33.32C102.869 33.4267 102.656 33.7467 102.229 34.28C101.802 34.7867 101.269 35.3867 100.629 36.08C99.9891 36.7467 99.3357 37.4133 98.6691 38.08C98.0024 38.72 97.4157 39.2667 96.9091 39.72C96.4291 40.1467 96.1224 40.36 95.9891 40.36ZM34.6553 95.32C33.4286 95.32 32.8153 94.7067 32.8153 93.48C32.8153 93.3467 32.8286 93.2133 32.8553 93.08C32.8553 92.9467 32.8686 92.8133 32.8953 92.68C33.1086 91.72 33.562 90.8 34.2553 89.92C34.9486 89.04 35.762 88.2133 36.6953 87.44C37.6286 86.6933 38.5886 85.9867 39.5753 85.32C40.5353 84.68 41.402 84.12 42.1753 83.64C42.6286 83.3467 43.202 82.9867 43.8953 82.56C44.6153 82.1333 45.3753 81.6667 46.1753 81.16C46.9753 80.68 47.7353 80.2267 48.4553 79.8C48.7486 79.0533 49.002 78.2267 49.2153 77.32C49.4553 76.4133 49.562 75.5067 49.5353 74.6C49.2153 74.9467 48.7886 75.4267 48.2553 76.04C47.722 76.6267 47.1353 77.2133 46.4953 77.8C45.882 78.3867 45.2553 78.8933 44.6153 79.32C44.002 79.72 43.4553 79.92 42.9753 79.92C42.4686 79.92 42.082 79.68 41.8153 79.2C41.5486 78.72 41.4153 78.2533 41.4153 77.8C41.4153 77.0533 41.6286 76.24 42.0553 75.36C42.482 74.48 43.0553 73.6133 43.7753 72.76C44.4953 71.9067 45.282 71.12 46.1353 70.4C46.9886 69.68 47.842 69.1067 48.6953 68.68C49.5486 68.2533 50.3353 68.04 51.0553 68.04C51.6153 68.04 52.122 68.24 52.5753 68.64C53.0286 69.0133 53.2553 69.4933 53.2553 70.08C53.2553 70.2667 53.202 70.4667 53.0953 70.68C53.0153 70.8667 52.8686 70.96 52.6553 70.96C52.4686 70.96 52.322 70.8933 52.2153 70.76C52.1086 70.6 51.9753 70.4533 51.8153 70.32C51.6553 70.16 51.3753 70.08 50.9753 70.08C50.3886 70.08 49.7486 70.28 49.0553 70.68C48.3886 71.0533 47.762 71.5067 47.1753 72.04C46.5886 72.5733 46.0953 73.04 45.6953 73.44C45.1886 73.9733 44.6953 74.6133 44.2153 75.36C43.762 76.1067 43.402 76.8267 43.1353 77.52C43.0553 77.7067 42.9753 77.92 42.8953 78.16C42.842 78.4 42.8153 78.6267 42.8153 78.84C42.8153 79.1067 42.9086 79.24 43.0953 79.24C43.1486 79.24 43.202 79.24 43.2553 79.24C43.3086 79.2133 43.362 79.1867 43.4153 79.16C44.1886 78.84 45.002 78.2667 45.8553 77.44C46.7086 76.6133 47.5086 75.72 48.2553 74.76C49.002 73.7733 49.602 72.9333 50.0553 72.24L50.2153 72C50.3753 71.4933 50.722 71.24 51.2553 71.24C51.4153 71.24 51.5753 71.28 51.7353 71.36C51.8953 71.44 51.9753 71.5867 51.9753 71.8C51.9753 72.9733 51.922 74 51.8153 74.88C51.7086 75.76 51.4553 76.76 51.0553 77.88C51.5886 77.4533 52.082 77.04 52.5353 76.64C53.0153 76.24 53.482 75.8 53.9353 75.32C54.362 74.8933 54.762 74.4533 55.1353 74C55.5353 73.5467 55.9486 73.12 56.3753 72.72C56.4286 72.6667 56.482 72.6267 56.5353 72.6C56.6153 72.5467 56.6953 72.52 56.7753 72.52C56.9353 72.52 57.0153 72.6 57.0153 72.76C57.0153 72.8933 56.8153 73.1867 56.4153 73.64C56.042 74.0667 55.562 74.5733 54.9753 75.16C54.4153 75.7467 53.8153 76.3467 53.1753 76.96C52.562 77.5467 52.002 78.08 51.4953 78.56C51.0153 79.0133 50.682 79.32 50.4953 79.48C49.2686 82.7067 47.6686 85.5067 45.6953 87.88C43.7486 90.28 41.2686 92.3467 38.2553 94.08C37.7486 94.3733 37.1753 94.6533 36.5353 94.92C35.8953 95.1867 35.2686 95.32 34.6553 95.32ZM35.5753 94.32C36.2953 94.32 37.082 94.0533 37.9353 93.52C38.762 93.0133 39.5886 92.3733 40.4153 91.6C41.242 90.8267 41.9886 90.0533 42.6553 89.28C43.3486 88.5333 43.8953 87.9067 44.2953 87.4C44.7486 86.7867 45.1886 86.1733 45.6153 85.56C46.042 84.9733 46.442 84.36 46.8153 83.72C47.3753 82.7867 47.842 81.88 48.2153 81C48.242 80.92 48.2153 80.8667 48.1353 80.84C48.082 80.84 48.0553 80.84 48.0553 80.84C47.2286 81.4267 46.3886 82 45.5353 82.56C44.7086 83.1467 43.8686 83.72 43.0153 84.28C42.5886 84.5467 42.0153 84.9333 41.2953 85.44C40.5753 85.9733 39.802 86.56 38.9753 87.2C38.1486 87.8667 37.362 88.5467 36.6153 89.24C35.8686 89.96 35.2553 90.6533 34.7753 91.32C34.2953 92.0133 34.0553 92.6267 34.0553 93.16C34.0553 93.5867 34.2286 93.88 34.5753 94.04C34.8953 94.2267 35.2286 94.32 35.5753 94.32ZM56.8809 79.64C55.2809 79.64 54.4809 78.8533 54.4809 77.28C54.4809 76.6667 54.6409 75.96 54.9609 75.16C55.3076 74.3333 55.7609 73.5067 56.3209 72.68C56.8809 71.8533 57.5076 71.0933 58.2009 70.4C58.8943 69.68 59.6009 69.1067 60.3209 68.68C61.0676 68.2267 61.7609 68 62.4009 68C62.6143 68 62.7609 68.0533 62.8409 68.16C62.9476 68.24 63.0276 68.3867 63.0809 68.6C63.1343 68.7067 63.1743 68.8267 63.2009 68.96C63.2276 69.0933 63.2676 69.2267 63.3209 69.36C63.4276 69.5467 63.5209 69.7333 63.6009 69.92C63.6809 70.1067 63.7209 70.3067 63.7209 70.52C63.7209 70.7867 63.6543 71.0267 63.5209 71.24C63.3876 71.4267 63.2276 71.6 63.0409 71.76C62.7743 72 62.3743 72.3067 61.8409 72.68C61.3076 73.0267 60.7209 73.3867 60.0809 73.76C59.4676 74.1067 58.8676 74.4133 58.2809 74.68C57.7209 74.9467 57.2676 75.1067 56.9209 75.16C56.6809 75.5333 56.4276 76 56.1609 76.56C55.9209 77.0933 55.8009 77.5867 55.8009 78.04C55.8009 78.28 55.8543 78.4933 55.9609 78.68C56.0943 78.8667 56.2943 78.96 56.5609 78.96C56.9876 78.96 57.5476 78.76 58.2409 78.36C58.9609 77.9333 59.7076 77.4267 60.4809 76.84C61.2543 76.2267 61.9609 75.64 62.6009 75.08C63.2676 74.4933 63.7609 74.04 64.0809 73.72L65.3609 72.36C65.5209 72.2 65.6943 72.12 65.8809 72.12C66.0409 72.12 66.1209 72.1867 66.1209 72.32C66.1209 72.48 65.8943 72.8133 65.4409 73.32C64.9876 73.8 64.4409 74.3467 63.8009 74.96C63.1876 75.5467 62.6143 76.0933 62.0809 76.6C61.5476 77.08 61.2009 77.3867 61.0409 77.52C60.4809 78 59.8409 78.48 59.1209 78.96C58.4009 79.4133 57.6543 79.64 56.8809 79.64ZM57.6009 74.12C57.8676 73.96 58.2676 73.7067 58.8009 73.36C59.3609 73.0133 59.9343 72.6267 60.5209 72.2C61.1076 71.7733 61.6009 71.3467 62.0009 70.92C62.4276 70.4933 62.6409 70.12 62.6409 69.8C62.6409 69.72 62.6276 69.6533 62.6009 69.6C62.5743 69.5733 62.5209 69.56 62.4409 69.56C62.0943 69.56 61.6809 69.7467 61.2009 70.12C60.7209 70.4933 60.2409 70.9467 59.7609 71.48C59.2809 71.9867 58.8409 72.4933 58.4409 73C58.0676 73.48 57.7876 73.8533 57.6009 74.12ZM70.8719 80.36C70.6319 80.36 70.3519 80.2533 70.0319 80.04C69.7385 79.8267 69.4852 79.5867 69.2719 79.32C69.0585 79.0267 68.9519 78.76 68.9519 78.52C68.9519 78.12 69.0985 77.5867 69.3919 76.92C69.6852 76.2267 70.0185 75.5467 70.3919 74.88C70.7919 74.2133 71.0985 73.72 71.3119 73.4C70.9385 73.72 70.4585 74.24 69.8719 74.96C69.3119 75.6533 68.6985 76.4 68.0319 77.2C67.3919 77.9733 66.7652 78.64 66.1519 79.2C65.5652 79.76 65.0585 80.04 64.6319 80.04C64.0452 80.04 63.5652 79.84 63.1919 79.44C62.8452 79.0133 62.6719 78.5067 62.6719 77.92C62.6719 77.12 62.8985 76.2667 63.3519 75.36C63.8052 74.4267 64.3919 73.5333 65.1119 72.68C65.8585 71.8 66.6585 71 67.5119 70.28C68.3919 69.56 69.2452 68.9867 70.0719 68.56C70.9252 68.1333 71.6852 67.92 72.3519 67.92C73.0719 67.92 73.6585 68.0933 74.1119 68.44C74.5652 68.76 74.7919 69.2533 74.7919 69.92C74.7919 70.0267 74.7652 70.2267 74.7119 70.52C74.6852 70.8133 74.5919 70.96 74.4319 70.96C74.3519 70.96 74.2185 70.84 74.0319 70.6C73.8719 70.36 73.6452 70.12 73.3519 69.88C73.0585 69.64 72.6852 69.52 72.2319 69.52C71.4852 69.52 70.6985 69.8 69.8719 70.36C69.0719 70.8933 68.2985 71.5867 67.5519 72.44C66.8052 73.2667 66.1519 74.12 65.5919 75C65.0319 75.88 64.6052 76.64 64.3119 77.28C64.2319 77.4667 64.1519 77.6667 64.0719 77.88C64.0185 78.0933 63.9919 78.3067 63.9919 78.52C63.9919 78.76 64.0585 78.88 64.1919 78.88C64.3252 78.88 64.6052 78.7333 65.0319 78.44C65.4852 78.1467 65.8052 77.9333 65.9919 77.8C66.9252 77.1333 67.8052 76.3733 68.6319 75.52C69.4852 74.6667 70.2452 73.7867 70.9119 72.88C71.1252 72.5867 71.3252 72.2933 71.5119 72C71.6985 71.7067 71.8852 71.4267 72.0719 71.16C72.2052 70.9733 72.3385 70.88 72.4719 70.88C72.7652 70.88 73.0452 71.08 73.3119 71.48C73.6052 71.88 73.7519 72.2267 73.7519 72.52C73.7519 72.6533 73.7252 72.7333 73.6719 72.76C73.6452 72.7867 73.5652 72.8667 73.4319 73C73.0319 73.4 72.6319 73.96 72.2319 74.68C71.8585 75.4 71.5252 76.1333 71.2319 76.88C70.9652 77.6 70.7652 78.2133 70.6319 78.72C70.6052 78.8 70.5785 78.9067 70.5519 79.04C70.5519 79.1467 70.6185 79.1867 70.7519 79.16C71.0185 79.08 71.4452 78.7867 72.0319 78.28C72.6452 77.7467 73.2985 77.1467 73.9919 76.48C74.7119 75.7867 75.3519 75.1467 75.9119 74.56C76.4985 73.9733 76.8852 73.56 77.0719 73.32C77.1252 73.2667 77.1785 73.2133 77.2319 73.16C77.3119 73.08 77.3919 73.04 77.4719 73.04C77.6585 73.04 77.7519 73.1333 77.7519 73.32C77.7519 73.4267 77.5385 73.7467 77.1119 74.28C76.6852 74.7867 76.1519 75.3867 75.5119 76.08C74.8719 76.7467 74.2185 77.4133 73.5519 78.08C72.8852 78.72 72.2985 79.2667 71.7919 79.72C71.3119 80.1467 71.0052 80.36 70.8719 80.36ZM80.69 80.48C80.2633 80.48 79.81 80.2667 79.33 79.84C78.8767 79.3867 78.65 78.9467 78.65 78.52C78.65 77.9867 78.8367 77.3867 79.21 76.72C79.5833 76.0267 80.0233 75.36 80.53 74.72C81.0367 74.08 81.4767 73.5333 81.85 73.08C82.2233 72.6 82.41 72.28 82.41 72.12V72.04C82.17 71.8267 81.9433 71.6267 81.73 71.44C81.5167 71.2267 81.2233 71.12 80.85 71.12C80.5833 71.12 80.2367 71.28 79.81 71.6C79.41 71.92 78.9967 72.2933 78.57 72.72C78.1433 73.1467 77.7567 73.5467 77.41 73.92C77.0633 74.2933 76.81 74.5467 76.65 74.68C76.5433 74.7867 76.4367 74.8533 76.33 74.88C76.25 74.9067 76.1833 74.92 76.13 74.92C76.0233 74.92 75.97 74.8667 75.97 74.76C75.97 74.6533 76.0233 74.5467 76.13 74.44C76.5567 73.88 77.05 73.3067 77.61 72.72C78.17 72.1333 78.6767 71.6 79.13 71.12C79.5833 70.6133 79.85 70.2533 79.93 70.04C80.1433 69.4267 80.3567 68.88 80.57 68.4C80.81 67.92 81.1833 67.4667 81.69 67.04C81.9033 66.8267 82.1567 66.6533 82.45 66.52C82.7433 66.3867 83.0367 66.32 83.33 66.32C83.5967 66.32 83.81 66.4 83.97 66.56C84.1567 66.6933 84.25 66.9067 84.25 67.2C84.25 67.52 84.1033 67.84 83.81 68.16C83.5433 68.48 83.2233 68.7867 82.85 69.08C82.4767 69.3467 82.1433 69.5867 81.85 69.8C81.5833 70.0133 81.4633 70.1867 81.49 70.32C81.65 70.4267 81.9567 70.56 82.41 70.72C82.89 70.88 83.2233 70.96 83.41 70.96C83.6233 70.96 83.8233 70.92 84.01 70.84C84.1967 70.76 84.3833 70.72 84.57 70.72C84.8367 70.72 85.1033 70.8 85.37 70.96C85.6367 71.12 85.77 71.36 85.77 71.68C85.77 71.9467 85.6633 72.2 85.45 72.44C85.2633 72.6533 85.0633 72.84 84.85 73C84.53 73.24 84.1033 73.6 83.57 74.08C83.0367 74.56 82.49 75.0933 81.93 75.68C81.3967 76.2667 80.93 76.8533 80.53 77.44C80.1567 78 79.97 78.4933 79.97 78.92C79.97 79.0267 79.9967 79.1333 80.05 79.24C80.0767 79.2667 80.13 79.28 80.21 79.28C80.7433 79.28 81.3433 79.04 82.01 78.56C82.6767 78.08 83.3433 77.4933 84.01 76.8C84.7033 76.1067 85.3433 75.4267 85.93 74.76C86.5433 74.0667 87.0633 73.5333 87.49 73.16C87.5433 73.1067 87.61 73.0533 87.69 73C87.77 72.9467 87.85 72.92 87.93 72.92C88.0633 72.92 88.13 73.0133 88.13 73.2C88.13 73.3067 87.9433 73.5733 87.57 74C87.2233 74.4267 86.77 74.9333 86.21 75.52C85.65 76.1067 85.0633 76.7067 84.45 77.32C83.8633 77.9333 83.3167 78.48 82.81 78.96C82.3033 79.4133 81.9433 79.7333 81.73 79.92C81.4367 80.16 81.2233 80.3067 81.09 80.36C80.9567 80.44 80.8233 80.48 80.69 80.48Z" fill="#534C31"/>
</svg>
